<?xml version="1.0" encoding="UTF-8" standalone="no"?>
<!DOCTYPE svg PUBLIC "-//W3C//DTD SVG 1.1//EN"
 "http://www.w3.org/Graphics/SVG/1.1/DTD/svg11.dtd">
<!-- Generated by graphviz version 2.34.0 (20130907.0228)
 -->
<!-- Title: deadend Pages: 1 -->
<svg width="430pt" height="844pt"
 viewBox="0.00 0.00 430.00 844.00" xmlns="http://www.w3.org/2000/svg" xmlns:xlink="http://www.w3.org/1999/xlink">
<g id="graph0" class="graph" transform="scale(1 1) rotate(0) translate(4 840)">
<title>deadend</title>
<polygon fill="white" stroke="white" points="-4,4 -4,-840 426,-840 426,4 -4,4"/>
<!-- start -->
<g id="node1" class="node"><title>start</title>
<text text-anchor="middle" x="27" y="-815.474" font-family="Avenir" font-size="14.00">start</text>
</g>
<!-- Cave -->
<g id="node2" class="node"><title>Cave</title>
<polygon fill="#f8ca00" stroke="black" points="126,-836 72,-836 72,-800 126,-800 126,-836"/>
<text text-anchor="middle" x="99" y="-815.474" font-family="Avenir" font-size="14.00">Cave</text>
</g>
<!-- start&#45;&gt;Cave -->
<g id="edge1" class="edge"><title>start&#45;&gt;Cave</title>
<path fill="none" stroke="black" d="M54.2812,-818C56.7377,-818 59.1942,-818 61.6507,-818"/>
<polygon fill="black" stroke="black" points="61.7495,-821.5 71.7495,-818 61.7495,-814.5 61.7495,-821.5"/>
</g>
<!-- stone -->
<g id="node3" class="node"><title>stone</title>
<polygon fill="none" stroke="black" points="97,-764 43,-764 43,-728 97,-728 97,-764"/>
<text text-anchor="middle" x="70" y="-743.474" font-family="Avenir" font-size="14.00">stone</text>
</g>
<!-- Cave&#45;&gt;stone -->
<g id="edge2" class="edge"><title>Cave&#45;&gt;stone</title>
<path fill="none" stroke="black" d="M87.9104,-790.232C85.6395,-784.75 83.2503,-778.983 80.9832,-773.511"/>
<polygon fill="black" stroke="black" points="84.7705,-791.798 91.8315,-799.697 91.2375,-789.118 84.7705,-791.798"/>
<polygon fill="black" stroke="black" points="84.147,-772.003 77.0861,-764.104 77.68,-774.683 84.147,-772.003"/>
</g>
<!-- hole -->
<g id="node4" class="node"><title>hole</title>
<polygon fill="none" stroke="black" points="160,-692 106,-692 106,-656 160,-656 160,-692"/>
<text text-anchor="middle" x="133" y="-671.474" font-family="Avenir" font-size="14.00">hole</text>
</g>
<!-- Cave&#45;&gt;hole -->
<g id="edge3" class="edge"><title>Cave&#45;&gt;hole</title>
<path fill="none" stroke="#a61416" d="M103.101,-799.871C108.921,-775.564 119.635,-730.819 126.532,-702.013"/>
<polygon fill="#a61416" stroke="#a61416" points="129.959,-702.729 128.884,-692.189 123.152,-701.099 129.959,-702.729"/>
</g>
<!-- c -->
<g id="node5" class="node"><title>c</title>
<ellipse fill="black" stroke="black" cx="102" cy="-130" rx="1.8" ry="1.8"/>
</g>
<!-- stone&#45;&gt;c -->
<g id="edge4" class="edge"><title>stone&#45;&gt;c</title>
<path fill="none" stroke="#a61416" d="M60.0544,-727.706C45.9949,-701.584 22,-650.102 22,-603 22,-603 22,-603 22,-273 22,-215.17 72.9877,-159.173 93.5521,-138.94"/>
<polygon fill="#a61416" stroke="#a61416" points="96.2417,-141.213 101.102,-131.799 91.4315,-136.128 96.2417,-141.213"/>
</g>
<!-- a -->
<g id="node14" class="node"><title>a</title>
<ellipse fill="black" stroke="black" cx="70" cy="-674" rx="1.8" ry="1.8"/>
</g>
<!-- stone&#45;&gt;a -->
<g id="edge13" class="edge"><title>stone&#45;&gt;a</title>
<path fill="none" stroke="black" d="M70,-727.697C70,-714.635 70,-697.11 70,-685.934"/>
<polygon fill="black" stroke="black" points="73.5001,-685.807 70,-675.807 66.5001,-685.807 73.5001,-685.807"/>
</g>
<!-- Tunnel -->
<g id="node7" class="node"><title>Tunnel</title>
<polygon fill="#f8ca00" stroke="black" points="227.432,-292 170.568,-292 170.568,-256 227.432,-256 227.432,-292"/>
<text text-anchor="middle" x="199" y="-271.474" font-family="Avenir" font-size="14.00">Tunnel</text>
</g>
<!-- hole&#45;&gt;Tunnel -->
<g id="edge6" class="edge"><title>hole&#45;&gt;Tunnel</title>
<path fill="none" stroke="black" d="M133.666,-655.884C134.55,-631.65 136,-585.949 136,-547 136,-547 136,-547 136,-417 136,-376.553 137.349,-364.392 155,-328 159.904,-317.889 167.137,-308.06 174.327,-299.668"/>
<polygon fill="black" stroke="black" points="177.048,-301.876 181.131,-292.1 171.842,-297.196 177.048,-301.876"/>
</g>
<!-- cavity -->
<g id="node6" class="node"><title>cavity</title>
<polygon fill="none" stroke="black" points="142,-220 88,-220 88,-184 142,-184 142,-220"/>
<text text-anchor="middle" x="115" y="-199.474" font-family="Avenir" font-size="14.00">cavity</text>
</g>
<!-- cavity&#45;&gt;c -->
<g id="edge5" class="edge"><title>cavity&#45;&gt;c</title>
<path fill="none" stroke="black" d="M109.957,-173.847C107.874,-162.629 105.58,-150.276 103.992,-141.729"/>
<polygon fill="black" stroke="black" points="106.519,-174.504 111.787,-183.697 113.402,-173.226 106.519,-174.504"/>
<polygon fill="black" stroke="black" points="107.417,-141 102.15,-131.807 100.535,-142.278 107.417,-141"/>
</g>
<!-- b -->
<g id="node17" class="node"><title>b</title>
<ellipse fill="black" stroke="black" cx="283" cy="-546" rx="1.8" ry="1.8"/>
</g>
<!-- cavity&#45;&gt;b -->
<g id="edge19" class="edge"><title>cavity&#45;&gt;b</title>
<path fill="none" stroke="black" d="M111.56,-220.408C106.592,-247.104 98,-299.812 98,-345 98,-419 98,-419 98,-419 98,-503.306 230.864,-535.212 271.399,-542.984"/>
<polygon fill="black" stroke="black" points="270.944,-546.458 281.401,-544.754 272.164,-539.565 270.944,-546.458"/>
</g>
<!-- Tunnel&#45;&gt;cavity -->
<g id="edge8" class="edge"><title>Tunnel&#45;&gt;cavity</title>
<path fill="none" stroke="black" d="M170.239,-249.033C161.503,-241.753 151.916,-233.763 143.216,-226.513"/>
<polygon fill="black" stroke="black" points="168.313,-251.984 178.236,-255.697 172.794,-246.606 168.313,-251.984"/>
<polygon fill="black" stroke="black" points="145.448,-223.817 135.525,-220.104 140.967,-229.195 145.448,-223.817"/>
</g>
<!-- opening -->
<g id="node8" class="node"><title>opening</title>
<polygon fill="none" stroke="black" points="237.092,-220 168.908,-220 168.908,-184 237.092,-184 237.092,-220"/>
<text text-anchor="middle" x="203" y="-199.474" font-family="Avenir" font-size="14.00">opening</text>
</g>
<!-- Tunnel&#45;&gt;opening -->
<g id="edge7" class="edge"><title>Tunnel&#45;&gt;opening</title>
<path fill="none" stroke="black" d="M200.562,-245.665C200.854,-240.552 201.159,-235.21 201.451,-230.104"/>
<polygon fill="black" stroke="black" points="197.065,-245.513 199.989,-255.697 204.054,-245.913 197.065,-245.513"/>
<polygon fill="black" stroke="black" points="204.946,-230.288 202.023,-220.104 197.958,-229.888 204.946,-230.288"/>
</g>
<!-- door -->
<g id="node9" class="node"><title>door</title>
<polygon fill="none" stroke="black" points="352.573,-220 261.427,-220 261.427,-184 352.573,-184 352.573,-220"/>
<text text-anchor="middle" x="307" y="-199.474" font-family="Avenir" font-size="14.00">door+Stone</text>
</g>
<!-- Tunnel&#45;&gt;door -->
<g id="edge9" class="edge"><title>Tunnel&#45;&gt;door</title>
<path fill="none" stroke="black" d="M234.005,-250.312C246.154,-242.437 259.774,-233.609 271.929,-225.731"/>
<polygon fill="black" stroke="black" points="231.908,-247.5 225.42,-255.876 235.715,-253.374 231.908,-247.5"/>
<polygon fill="black" stroke="black" points="273.991,-228.566 280.479,-220.19 270.183,-222.692 273.991,-228.566"/>
</g>
<!-- SideRoom -->
<g id="node12" class="node"><title>SideRoom</title>
<polygon fill="#f8ca00" stroke="black" points="319.237,-148 238.763,-148 238.763,-112 319.237,-112 319.237,-148"/>
<text text-anchor="middle" x="279" y="-127.474" font-family="Avenir" font-size="14.00">SideRoom</text>
</g>
<!-- opening&#45;&gt;SideRoom -->
<g id="edge11" class="edge"><title>opening&#45;&gt;SideRoom</title>
<path fill="none" stroke="black" d="M229.323,-176.755C237.009,-169.676 245.402,-161.946 253.064,-154.889"/>
<polygon fill="black" stroke="black" points="226.771,-174.347 221.787,-183.697 231.513,-179.496 226.771,-174.347"/>
<polygon fill="black" stroke="black" points="255.445,-157.454 260.43,-148.104 250.703,-152.305 255.445,-157.454"/>
</g>
<!-- door&#45;&gt;b -->
<g id="edge20" class="edge"><title>door&#45;&gt;b</title>
<path fill="none" stroke="black" d="M314.892,-220.072C326.288,-246.329 346,-298.47 346,-345 346,-419 346,-419 346,-419 346,-459.447 347.829,-473.328 327,-508 318.725,-521.775 303.455,-532.858 293.262,-539.186"/>
<polygon fill="black" stroke="black" points="291.277,-536.291 284.351,-544.308 294.765,-542.36 291.277,-536.291"/>
</g>
<!-- DoorOpen -->
<g id="node10" class="node"><title>DoorOpen</title>
<polygon fill="none" stroke="black" points="317.917,-508 182.083,-508 182.083,-472 317.917,-472 317.917,-508"/>
<text text-anchor="middle" x="250" y="-487.474" font-family="Avenir" font-size="14.00">door+Stone+Open</text>
</g>
<!-- TreasureRoom -->
<g id="node11" class="node"><title>TreasureRoom</title>
<polygon fill="#f8ca00" stroke="black" points="302.217,-436 197.783,-436 197.783,-400 302.217,-400 302.217,-436"/>
<text text-anchor="middle" x="250" y="-415.474" font-family="Avenir" font-size="14.00">TreasureRoom</text>
</g>
<!-- DoorOpen&#45;&gt;TreasureRoom -->
<g id="edge10" class="edge"><title>DoorOpen&#45;&gt;TreasureRoom</title>
<path fill="none" stroke="black" d="M250,-471.697C250,-463.983 250,-454.712 250,-446.112"/>
<polygon fill="black" stroke="black" points="253.5,-446.104 250,-436.104 246.5,-446.104 253.5,-446.104"/>
</g>
<!-- doorway -->
<g id="node18" class="node"><title>doorway</title>
<polygon fill="none" stroke="black" points="233.447,-364 164.553,-364 164.553,-328 233.447,-328 233.447,-364"/>
<text text-anchor="middle" x="199" y="-343.474" font-family="Avenir" font-size="14.00">doorway</text>
</g>
<!-- TreasureRoom&#45;&gt;doorway -->
<g id="edge23" class="edge"><title>TreasureRoom&#45;&gt;doorway</title>
<path fill="none" stroke="black" d="M237.393,-399.697C231.403,-391.474 224.124,-381.483 217.521,-372.421"/>
<polygon fill="black" stroke="black" points="220.179,-370.126 211.462,-364.104 214.522,-374.248 220.179,-370.126"/>
</g>
<!-- treasure -->
<g id="node19" class="node"><title>treasure</title>
<polygon fill="none" stroke="black" points="318.017,-364 251.983,-364 251.983,-328 318.017,-328 318.017,-364"/>
<text text-anchor="middle" x="285" y="-343.474" font-family="Avenir" font-size="14.00">treasure</text>
</g>
<!-- TreasureRoom&#45;&gt;treasure -->
<g id="edge25" class="edge"><title>TreasureRoom&#45;&gt;treasure</title>
<path fill="none" stroke="black" d="M258.652,-399.697C262.636,-391.728 267.45,-382.1 271.868,-373.264"/>
<polygon fill="black" stroke="black" points="275.106,-374.614 276.448,-364.104 268.845,-371.483 275.106,-374.614"/>
</g>
<!-- fountain -->
<g id="node13" class="node"><title>fountain</title>
<polygon fill="none" stroke="black" points="312.304,-76 245.696,-76 245.696,-40 312.304,-40 312.304,-76"/>
<text text-anchor="middle" x="279" y="-55.4744" font-family="Avenir" font-size="14.00">fountain</text>
</g>
<!-- SideRoom&#45;&gt;fountain -->
<g id="edge12" class="edge"><title>SideRoom&#45;&gt;fountain</title>
<path fill="none" stroke="black" d="M279,-101.665C279,-96.6867 279,-91.4906 279,-86.5072"/>
<polygon fill="black" stroke="black" points="275.5,-101.697 279,-111.697 282.5,-101.697 275.5,-101.697"/>
<polygon fill="black" stroke="black" points="282.5,-86.1043 279,-76.1043 275.5,-86.1044 282.5,-86.1043"/>
</g>
<!-- fountain&#45;&gt;a -->
<g id="edge14" class="edge"><title>fountain&#45;&gt;a</title>
<path fill="none" stroke="black" d="M245.639,-59.4403C204.146,-61.7794 133.593,-71.9042 91,-112 60.5012,-140.71 60,-159.114 60,-201 60,-547 60,-547 60,-547 60,-589.79 65.8022,-640.499 68.5672,-662.236"/>
<polygon fill="black" stroke="black" points="65.1045,-662.748 69.8877,-672.202 72.0438,-661.829 65.1045,-662.748"/>
</g>
<!-- aa -->
<g id="node16" class="node"><title>aa</title>
<ellipse fill="black" stroke="black" cx="350" cy="-2" rx="1.8" ry="1.8"/>
</g>
<!-- fountain&#45;&gt;aa -->
<g id="edge17" class="edge"><title>fountain&#45;&gt;aa</title>
<path fill="none" stroke="black" d="M301.465,-39.9141C314.689,-29.8564 330.715,-17.6674 340.636,-10.122"/>
<polygon fill="black" stroke="black" points="342.927,-12.7768 348.768,-3.93727 338.689,-7.20517 342.927,-12.7768"/>
</g>
<!-- GlowingStone -->
<g id="node15" class="node"><title>GlowingStone</title>
<polygon fill="none" stroke="black" points="406.125,-620 293.875,-620 293.875,-584 406.125,-584 406.125,-620"/>
<text text-anchor="middle" x="350" y="-599.474" font-family="Avenir" font-size="14.00">stone+Glowing</text>
</g>
<!-- a&#45;&gt;GlowingStone -->
<g id="edge15" class="edge"><title>a&#45;&gt;GlowingStone</title>
<path fill="none" stroke="black" d="M70.9591,-672.213C74.3119,-669.504 85.9075,-660.485 97,-656 157.75,-631.438 231.507,-617.653 283.67,-610.342"/>
<polygon fill="black" stroke="black" points="284.367,-613.779 293.804,-608.964 283.424,-606.843 284.367,-613.779"/>
</g>
<!-- GlowingStone&#45;&gt;SideRoom -->
<g id="edge22" class="edge"><title>GlowingStone&#45;&gt;SideRoom</title>
<path fill="none" stroke="black" d="M358.756,-583.977C368.83,-562.778 384,-525.181 384,-491 384,-491 384,-491 384,-273 384,-232.145 384.902,-217.133 361,-184 352.056,-171.602 339.237,-161.361 326.383,-153.297"/>
<polygon fill="black" stroke="black" points="327.915,-150.137 317.525,-148.062 324.353,-156.163 327.915,-150.137"/>
</g>
<!-- GlowingStone&#45;&gt;aa -->
<g id="edge16" class="edge"><title>GlowingStone&#45;&gt;aa</title>
<path fill="none" stroke="black" d="M377.695,-576.757C397.986,-556.201 422,-524.744 422,-491 422,-491 422,-491 422,-129 422,-78.2172 377.365,-29.2918 358.383,-10.7805"/>
<polygon fill="black" stroke="black" points="375.163,-574.338 370.44,-583.821 380.046,-579.353 375.163,-574.338"/>
<polygon fill="black" stroke="black" points="360.506,-7.9744 350.809,-3.70644 355.728,-13.0901 360.506,-7.9744"/>
</g>
<!-- GlowingStone&#45;&gt;b -->
<g id="edge18" class="edge"><title>GlowingStone&#45;&gt;b</title>
<path fill="none" stroke="black" d="M328.801,-583.914C316.456,-573.965 301.523,-561.929 292.141,-554.367"/>
<polygon fill="black" stroke="black" points="294.145,-551.487 284.163,-547.937 289.753,-556.938 294.145,-551.487"/>
</g>
<!-- b&#45;&gt;DoorOpen -->
<g id="edge21" class="edge"><title>b&#45;&gt;DoorOpen</title>
<path fill="none" stroke="black" d="M282.427,-544.063C280.354,-540.67 272.983,-528.609 265.792,-516.842"/>
<polygon fill="black" stroke="black" points="268.62,-514.757 260.419,-508.049 262.647,-518.407 268.62,-514.757"/>
</g>
<!-- doorway&#45;&gt;Tunnel -->
<g id="edge24" class="edge"><title>doorway&#45;&gt;Tunnel</title>
<path fill="none" stroke="black" d="M199,-327.697C199,-319.983 199,-310.712 199,-302.112"/>
<polygon fill="black" stroke="black" points="202.5,-302.104 199,-292.104 195.5,-302.104 202.5,-302.104"/>
</g>
<!-- won -->
<g id="node20" class="node"><title>won</title>
<text text-anchor="middle" x="285" y="-271.474" font-family="Avenir" font-size="14.00">#won</text>
</g>
<!-- treasure&#45;&gt;won -->
<g id="edge26" class="edge"><title>treasure&#45;&gt;won</title>
<path fill="none" stroke="black" d="M285,-327.697C285,-319.983 285,-310.712 285,-302.112"/>
<polygon fill="black" stroke="black" points="288.5,-302.104 285,-292.104 281.5,-302.104 288.5,-302.104"/>
</g>
</g>
</svg>
