<?xml version="1.0" encoding="UTF-8" standalone="no"?>
<!DOCTYPE svg PUBLIC "-//W3C//DTD SVG 1.1//EN"
 "http://www.w3.org/Graphics/SVG/1.1/DTD/svg11.dtd">
<!-- Generated by graphviz version 2.34.0 (20130907.0228)
 -->
<!-- Title: deadend Pages: 1 -->
<svg width="231pt" height="260pt"
 viewBox="0.00 0.00 231.00 260.00" xmlns="http://www.w3.org/2000/svg" xmlns:xlink="http://www.w3.org/1999/xlink">
<g id="graph0" class="graph" transform="scale(1 1) rotate(0) translate(4 256)">
<title>deadend</title>
<polygon fill="white" stroke="white" points="-4,4 -4,-256 227,-256 227,4 -4,4"/>
<!-- start -->
<g id="node1" class="node"><title>start</title>
<text text-anchor="middle" x="27" y="-231.474" font-family="Avenir" font-size="14.00">start</text>
</g>
<!-- Cave -->
<g id="node2" class="node"><title>Cave</title>
<polygon fill="#f8ca00" stroke="black" points="126,-252 72,-252 72,-216 126,-216 126,-252"/>
<text text-anchor="middle" x="99" y="-231.474" font-family="Avenir" font-size="14.00">Cave</text>
</g>
<!-- start&#45;&gt;Cave -->
<g id="edge1" class="edge"><title>start&#45;&gt;Cave</title>
<path fill="none" stroke="black" d="M54.2812,-234C56.7377,-234 59.1942,-234 61.6507,-234"/>
<polygon fill="black" stroke="black" points="61.7495,-237.5 71.7495,-234 61.7495,-230.5 61.7495,-237.5"/>
</g>
<!-- Tunnel -->
<g id="node3" class="node"><title>Tunnel</title>
<polygon fill="#f8ca00" stroke="black" points="127.432,-180 70.5678,-180 70.5678,-144 127.432,-144 127.432,-180"/>
<text text-anchor="middle" x="99" y="-159.474" font-family="Avenir" font-size="14.00">Tunnel</text>
</g>
<!-- Cave&#45;&gt;Tunnel -->
<g id="edge2" class="edge"><title>Cave&#45;&gt;Tunnel</title>
<path fill="none" stroke="black" d="M99,-215.697C99,-207.983 99,-198.712 99,-190.112"/>
<polygon fill="black" stroke="black" points="102.5,-190.104 99,-180.104 95.5001,-190.104 102.5,-190.104"/>
</g>
<!-- Chamber -->
<g id="node4" class="node"><title>Chamber</title>
<polygon fill="#f8ca00" stroke="black" points="103.366,-108 30.6337,-108 30.6337,-72 103.366,-72 103.366,-108"/>
<text text-anchor="middle" x="67" y="-87.4744" font-family="Avenir" font-size="14.00">Chamber</text>
</g>
<!-- Tunnel&#45;&gt;Chamber -->
<g id="edge3" class="edge"><title>Tunnel&#45;&gt;Chamber</title>
<path fill="none" stroke="black" d="M86.8924,-134.515C84.3011,-128.846 81.5647,-122.86 78.9783,-117.202"/>
<polygon fill="black" stroke="black" points="83.7491,-136.057 91.0899,-143.697 90.1154,-133.147 83.7491,-136.057"/>
<polygon fill="black" stroke="black" points="82.1599,-115.744 74.8191,-108.104 75.7936,-118.654 82.1599,-115.744"/>
</g>
<!-- TreasureRoom -->
<g id="node5" class="node"><title>TreasureRoom</title>
<polygon fill="#f8ca00" stroke="black" points="151.217,-36 46.7829,-36 46.7829,-0 151.217,-0 151.217,-36"/>
<text text-anchor="middle" x="99" y="-15.4744" font-family="Avenir" font-size="14.00">TreasureRoom</text>
</g>
<!-- Tunnel&#45;&gt;TreasureRoom -->
<g id="edge4" class="edge"><title>Tunnel&#45;&gt;TreasureRoom</title>
<path fill="none" stroke="black" d="M107.019,-133.724C109.067,-125.529 110.977,-116.465 112,-108 113.92,-92.1156 113.92,-87.8844 112,-72 110.977,-63.5349 109.067,-54.4712 107.019,-46.2761"/>
<polygon fill="black" stroke="black" points="103.599,-132.966 104.409,-143.529 110.364,-134.766 103.599,-132.966"/>
<polygon fill="black" stroke="black" points="110.364,-45.2336 104.409,-36.4705 103.599,-47.0344 110.364,-45.2336"/>
</g>
<!-- Chamber&#45;&gt;TreasureRoom -->
<g id="edge6" class="edge"><title>Chamber&#45;&gt;TreasureRoom</title>
<path fill="none" stroke="black" stroke-dasharray="5,2" d="M74.9101,-71.6966C78.5527,-63.7284 82.9545,-54.0995 86.9935,-45.2641"/>
<polygon fill="black" stroke="black" points="90.2064,-46.6543 91.1809,-36.1043 83.8401,-43.7439 90.2064,-46.6543"/>
</g>
<!-- won -->
<g id="node6" class="node"><title>won</title>
<text text-anchor="middle" x="196" y="-15.4744" font-family="Avenir" font-size="14.00">#won</text>
</g>
<!-- TreasureRoom&#45;&gt;won -->
<g id="edge5" class="edge"><title>TreasureRoom&#45;&gt;won</title>
<path fill="none" stroke="black" d="M151.289,-18C153.745,-18 156.201,-18 158.657,-18"/>
<polygon fill="black" stroke="black" points="158.754,-21.5001 168.754,-18 158.754,-14.5001 158.754,-21.5001"/>
</g>
</g>
</svg>
